<svg fill="#ffffff" version="1.1" id="Capa_1" xmlns="http://www.w3.org/2000/svg" xmlns:xlink="http://www.w3.org/1999/xlink" viewBox="0 0 488 488" xml:space="preserve"><g id="SVGRepo_bgCarrier" stroke-width="0"></g><g id="SVGRepo_tracerCarrier" stroke-linecap="round" stroke-linejoin="round"></g><g id="SVGRepo_iconCarrier"> <g> <g> <path d="M64.192,108.444h359.617c29.943,0,54.223-24.278,54.223-54.222C478.031,24.278,453.754,0,423.809,0H64.192 C34.248,0,9.969,24.278,9.969,54.222C9.969,84.166,34.248,108.444,64.192,108.444z"></path> <path d="M423.809,189.778H64.192c-29.944,0-54.223,24.278-54.223,54.222c0,29.943,24.278,54.223,54.223,54.223h359.617 c29.945,0,54.223-24.279,54.223-54.223C478.031,214.056,453.754,189.778,423.809,189.778z"></path> <path d="M423.809,379.557H64.192c-29.944,0-54.223,24.277-54.223,54.222C9.969,463.722,34.248,488,64.192,488h359.617 c29.945,0,54.223-24.278,54.223-54.222C478.031,403.834,453.754,379.557,423.809,379.557z"></path> </g> </g> </g></svg>