<svg viewBox="0 0 1024 1024" class="icon" version="1.1" xmlns="http://www.w3.org/2000/svg" fill="#ffffff"><g id="SVGRepo_bgCarrier" stroke-width="0"></g><g id="SVGRepo_tracerCarrier" stroke-linecap="round" stroke-linejoin="round"></g><g id="SVGRepo_iconCarrier"><path d="M406.162286 94.061714l12.653714 65.316572a365.933714 365.933714 0 0 0-267.264 501.540571l-61.220571 25.892572a432.420571 432.420571 0 0 1 315.830857-592.749715z m-193.828572 757.028572l42.569143-51.2a364.105143 364.105143 0 0 0 233.764572 84.48c87.771429 0 170.642286-31.012571 236.251428-86.528l43.008 50.761143A430.665143 430.665143 0 0 1 488.594286 950.857143a430.665143 430.665143 0 0 1-276.260572-99.766857z m426.422857-666.331429a135.68 135.68 0 1 1 7.753143-68.754286 432.713143 432.713143 0 0 1 268.873143 332.8c1.462857 9.069714 2.706286 21.065143 3.803429 35.986286a31.451429 31.451429 0 0 1-31.451429 33.718857 34.889143 34.889143 0 0 1-34.816-32.329143 366.153143 366.153143 0 0 0-214.162286-301.348571z m-126.464 29.403429a78.555429 78.555429 0 1 0 0-157.037715 78.555429 78.555429 0 0 0 0 157.037715z m-320.658285 672.914285a135.68 135.68 0 1 1 0-271.286857 135.68 135.68 0 0 1 0 271.36z m0-57.051428a78.555429 78.555429 0 1 0 0-157.110857 78.555429 78.555429 0 0 0 0 157.110857z m640.731428 57.051428a135.68 135.68 0 1 1 0-271.286857 135.68 135.68 0 0 1 0 271.36z m0-57.051428a78.555429 78.555429 0 1 0 0-157.110857 78.555429 78.555429 0 0 0 0 157.110857z" fill="#ffffff"></path></g></svg>