<?xml version="1.0" encoding="utf-8"?>
<!-- Generator: Adobe Illustrator 25.2.0, SVG Export Plug-In . SVG Version: 6.00 Build 0)  -->
<svg version="1.1" id="Graphic_Elements" xmlns="http://www.w3.org/2000/svg" xmlns:xlink="http://www.w3.org/1999/xlink" x="0px"
	 y="0px" viewBox="0 0 128 128" style="enable-background:new 0 0 128 128;" xml:space="preserve">
<style type="text/css">
	.st0{display:none;fill:#383636;}
	.st1{display:none;}
	.st2{display:inline;}
	.st3{fill:#383636;}
	.st4{display:inline;fill:#383636;}
	.st5{fill:#383636;stroke:#4DFF13;stroke-miterlimit:10;}
</style>
<path class="st0" d="M101.2,82.8l5.3,5.3l18-18c3.4-3.4,3.4-8.9,0-12.2l-18-18l-5.3,5.3l-0.8-0.8l18.3-18.3l-6.4-6.4l-5.2,5.2
	l-5.2-5.2l-5.1,5.1l-5.1-5.1l-8,8l-0.8-0.8l5.3-5.3l-18-18c-3.4-3.4-8.9-3.4-12.2,0l-18,18l5.3,5.3l-0.8,0.8l-8-8l-5.2,5.2L26,19.7
	l-5.1,5.1l-5.1-5.1l-6.4,6.4l18.3,18.3l-0.8,0.7l-0.1,0.1l-5.3-5.3l-18,18c-3.4,3.4-3.4,8.9,0,12.2l18,18l5.3-5.3l0.8,0.8L9.3,101.9
	l6.4,6.4l5.1-5.1l5.1,5.1l5.2-5.2l5.2,5.2l8-8l0.8,0.8l-5.3,5.3l18,18c3.4,3.4,8.9,3.4,12.2,0l18-18l-5.3-5.3l0-0.1l0.7-0.8l8,8
	l5.1-5.1l5.1,5.1l5.2-5.2l5.2,5.2l6.4-6.4l-18.3-18.3L101.2,82.8L101.2,82.8z M64,88.7L47,46.9h6.3L64,73l10.6-26.2H81L64,88.7z"/>
<g class="st1">
	<g class="st2">
		<polygon class="st3" points="48.4,48.3 62.3,82.4 61.7,83 47,46.9 53.4,46.9 53.9,48.3 		"/>
		<polygon class="st3" points="81,46.9 66.3,83 65.7,82.4 79.6,48.3 74.1,48.3 74.6,46.9 		"/>
	</g>
</g>
<path class="st0" d="M74.6,46.9l-0.6,1.4h5.5L65.7,82.4L64,86.7l-1.7-4.3L48.4,48.3h5.5l-0.6-1.4H47L61.7,83l0.4,1.1l1.9,4.7
	l1.9-4.7l0.4-1.1L81,46.9H74.6z"/>
<g class="st1">
	<path class="st4" d="M241.2,61.2l-37.7-37.7c-2.3-2.3-6.1-2.3-8.5,0l-37.7,37.7c-2.3,2.3-2.3,6.2,0,8.5l37.7,37.7
		c2.3,2.3,6.2,2.3,8.5,0l37.7-37.7C243.6,67.3,243.6,63.5,241.2,61.2z M233.8,68.9l-31,31c-2,1.9-5.1,1.9-7.1,0l-31-31
		c-1.9-1.9-1.9-5.1,0-7.1l31-31c1.9-2,5.1-2,7.1,0l31,31C235.8,63.8,235.8,67,233.8,68.9z"/>
	<g class="st2">
		<g>
			
				<rect x="188.4" y="22.6" transform="matrix(0.7071 0.7071 -0.7071 0.7071 102.1399 -116.4601)" class="st5" width="6.6" height="84.9"/>
		</g>
		<g>
			
				<rect x="195.8" y="22.6" transform="matrix(0.7071 0.7071 -0.7071 0.7071 104.3338 -121.7566)" class="st5" width="6.6" height="84.9"/>
		</g>
		<g>
			
				<rect x="203.4" y="22.6" transform="matrix(0.7071 0.7071 -0.7071 0.7071 106.5501 -127.1072)" class="st5" width="6.6" height="84.9"/>
		</g>
		<g>
			
				<rect x="188.4" y="22.6" transform="matrix(0.7071 -0.7071 0.7071 0.7071 10.1259 154.5735)" class="st5" width="6.6" height="84.9"/>
		</g>
		<g>
			
				<rect x="195.8" y="22.6" transform="matrix(0.7071 -0.7071 0.7071 0.7071 12.3198 159.8701)" class="st5" width="6.6" height="84.9"/>
		</g>
		<g>
			
				<rect x="203.4" y="22.6" transform="matrix(0.7071 -0.7071 0.7071 0.7071 14.5361 165.2206)" class="st5" width="6.6" height="84.9"/>
		</g>
	</g>
	<path class="st4" d="M231.4,68.9l-28.5,28.5c-2,1.9-5.1,1.9-7.1,0l-28.6-28.5c-1.9-1.9-1.9-5.1,0-7.1l28.6-28.5c1.9-2,5.1-2,7.1,0
		l28.5,28.5C233.3,63.8,233.3,67,231.4,68.9z"/>
</g>
<path class="st0" d="M97.8,61.9l-31-31c-2-2-5.1-2-7.1,0l-31,31c-1.9,2-1.9,5.1,0,7.1l31,31c1.9,1.9,5.1,1.9,7.1,0l31-31
	C99.7,67,99.7,63.8,97.8,61.9z M95.3,68.9L66.8,97.5c-2,1.9-5.1,1.9-7.1,0L31.2,68.9c-1.9-1.9-1.9-5.1,0-7.1l28.6-28.5
	c1.9-2,5.1-2,7.1,0l28.5,28.5C97.3,63.8,97.3,67,95.3,68.9z"/>
<g>
	<path class="st3" d="M123.8,58L70,4.2c-3.3-3.3-8.8-3.3-12.1,0L4.2,58c-3.3,3.3-3.3,8.8,0,12.1l53.8,53.8c3.3,3.3,8.8,3.3,12.1,0
		l53.8-53.8C127.2,66.7,127.2,61.3,123.8,58z M113.3,69L69,113.3c-2.8,2.8-7.3,2.8-10.1,0L14.7,69c-2.8-2.8-2.8-7.3,0-10.1L59,14.7
		c2.8-2.8,7.3-2.8,10.1,0L113.3,59C116,61.7,116,66.3,113.3,69z"/>
	<path class="st3" d="M102.3,59.8L68.2,25.7c-2.3-2.3-6.1-2.3-8.4,0L25.7,59.8c-2.3,2.3-2.3,6.1,0,8.4l34.1,34.1
		c2.3,2.3,6.1,2.3,8.4,0l34.1-34.1C104.6,65.9,104.6,62.1,102.3,59.8z M64,86.5l-15.4-38h5.7L64,72.2l9.7-23.8h5.7L64,86.5z"/>
</g>
<g class="st1">
	<g class="st2">
		<polygon class="st3" points="21.5,88.1 39.8,106.5 33.7,112.6 28,106.9 22.3,112.6 16.7,107 11.1,112.6 4.1,105.6 		"/>
		<polygon class="st3" points="39.8,21.5 21.5,39.9 4.1,22.4 11.1,15.4 16.7,21 22.3,15.4 28,21.1 33.7,15.4 		"/>
		<polygon class="st3" points="82.3,64 100.6,82.3 82.3,100.6 64,82.3 45.7,100.6 27.4,82.3 45.7,64 27.4,45.7 45.7,27.4 64,45.7 
			82.3,27.4 100.6,45.7 		"/>
		<polygon class="st3" points="123.9,105.6 116.9,112.6 111.2,106.9 105.5,112.6 99.9,107 94.3,112.6 88.2,106.5 106.5,88.1 		"/>
		<polygon class="st3" points="106.5,39.9 88.1,21.5 94.3,15.4 99.9,21 105.5,15.4 111.2,21.1 116.9,15.4 123.9,22.4 		"/>
	</g>
</g>
</svg>
